# Blender 3.3.0
# www.blender.org
o фундаментБоковой
v -1.700000 -0.750000 2.500000
v -1.700000 0.750000 2.500000
v -1.700000 -0.750000 -2.500000
v -1.700000 0.750000 -2.500000
v 1.700000 -0.750000 2.500000
v 1.700000 0.750000 2.500000
v 1.700000 -0.750000 -2.500000
v 1.700000 0.750000 -2.500000
vn -1.0000 -0.0000 -0.0000
vn -0.0000 -0.0000 -1.0000
vn 1.0000 -0.0000 -0.0000
vn -0.0000 -0.0000 1.0000
vn -0.0000 -1.0000 -0.0000
vn -0.0000 1.0000 -0.0000
s 0
f 1//1 2//1 4//1 3//1
f 3//2 4//2 8//2 7//2
f 7//3 8//3 6//3 5//3
f 5//4 6//4 2//4 1//4
f 3//5 7//5 5//5 1//5
f 8//6 4//6 2//6 6//6
l 1 1
l 1 1
l 1 1
l 1 1
l 1 1
l 1 1
l 1 7
l 1952543334 1917874800
l 1936025973 1
l 1 1
l 1 1
